<svg width="299" height="25" viewBox="0 0 299 25" fill="none" xmlns="http://www.w3.org/2000/svg">
<path d="M0.36 24V1.6H9.8C12.1893 1.6 14.2907 2.06933 16.104 3.008C17.9387 3.94667 19.3573 5.25867 20.36 6.944C21.384 8.62933 21.896 10.5813 21.896 12.8C21.896 15.0187 21.384 16.9707 20.36 18.656C19.3573 20.3413 17.9387 21.6533 16.104 22.592C14.2907 23.5307 12.1893 24 9.8 24H0.36ZM3.56 21.216H9.608C11.464 21.216 13.064 20.864 14.408 20.16C15.7733 19.456 16.8293 18.4747 17.576 17.216C18.3227 15.936 18.696 14.464 18.696 12.8C18.696 11.1147 18.3227 9.64267 17.576 8.384C16.8293 7.12533 15.7733 6.144 14.408 5.44C13.064 4.736 11.464 4.384 9.608 4.384H3.56V21.216ZM118.298 24V1.6H127.738C130.127 1.6 132.228 2.06933 134.042 3.008C135.876 3.94667 137.295 5.25867 138.298 6.944C139.322 8.62933 139.834 10.5813 139.834 12.8C139.834 15.0187 139.322 16.9707 138.298 18.656C137.295 20.3413 135.876 21.6533 134.042 22.592C132.228 23.5307 130.127 24 127.738 24H118.298ZM121.498 21.216H127.546C129.402 21.216 131.002 20.864 132.346 20.16C133.711 19.456 134.767 18.4747 135.514 17.216C136.26 15.936 136.634 14.464 136.634 12.8C136.634 11.1147 136.26 9.64267 135.514 8.384C134.767 7.12533 133.711 6.144 132.346 5.44C131.002 4.736 129.402 4.384 127.546 4.384H121.498V21.216ZM208.923 24V1.6H218.363C220.752 1.6 222.853 2.06933 224.667 3.008C226.501 3.94667 227.92 5.25867 228.923 6.944C229.947 8.62933 230.459 10.5813 230.459 12.8C230.459 15.0187 229.947 16.9707 228.923 18.656C227.92 20.3413 226.501 21.6533 224.667 22.592C222.853 23.5307 220.752 24 218.363 24H208.923ZM212.123 21.216H218.171C220.027 21.216 221.627 20.864 222.971 20.16C224.336 19.456 225.392 18.4747 226.139 17.216C226.885 15.936 227.259 14.464 227.259 12.8C227.259 11.1147 226.885 9.64267 226.139 8.384C225.392 7.12533 224.336 6.144 222.971 5.44C221.627 4.736 220.027 4.384 218.171 4.384H212.123V21.216Z" fill="#FF8743"/>
<path d="M28.4295 24V7.296H29.9655V11.872L29.8055 11.36C30.2748 10.016 31.0642 8.98133 32.1735 8.256C33.2828 7.53067 34.6695 7.168 36.3335 7.168V8.736C36.2695 8.736 36.2055 8.736 36.1415 8.736C36.0775 8.71467 36.0135 8.704 35.9495 8.704C34.0935 8.704 32.6428 9.29067 31.5975 10.464C30.5522 11.616 30.0295 13.2267 30.0295 15.296V24H28.4295ZM48.9698 24.128C47.2844 24.128 45.7911 23.7653 44.4898 23.04C43.2098 22.3147 42.1964 21.312 41.4498 20.032C40.7244 18.752 40.3618 17.2907 40.3618 15.648C40.3618 13.984 40.7031 12.5227 41.3858 11.264C42.0898 9.984 43.0498 8.98133 44.2658 8.256C45.4818 7.53067 46.8471 7.168 48.3618 7.168C49.8764 7.168 51.2311 7.52 52.4258 8.224C53.6418 8.928 54.5911 9.92 55.2738 11.2C55.9778 12.4587 56.3298 13.92 56.3298 15.584C56.3298 15.648 56.3191 15.7227 56.2978 15.808C56.2978 15.872 56.2978 15.9467 56.2978 16.032H41.5458V14.784H55.4338L54.7938 15.392C54.8151 14.0907 54.5378 12.928 53.9618 11.904C53.4071 10.8587 52.6498 10.048 51.6898 9.472C50.7298 8.87467 49.6204 8.576 48.3618 8.576C47.1244 8.576 46.0151 8.87467 45.0338 9.472C44.0738 10.048 43.3164 10.8587 42.7618 11.904C42.2071 12.928 41.9298 14.1013 41.9298 15.424V15.712C41.9298 17.0773 42.2284 18.2933 42.8258 19.36C43.4444 20.4053 44.2871 21.2267 45.3538 21.824C46.4204 22.4 47.6364 22.688 49.0018 22.688C50.0684 22.688 51.0604 22.496 51.9778 22.112C52.9164 21.728 53.7058 21.1413 54.3458 20.352L55.2738 21.408C54.5484 22.304 53.6311 22.9867 52.5218 23.456C51.4338 23.904 50.2498 24.128 48.9698 24.128ZM72.9388 24V20.192L72.8748 19.616V13.344C72.8748 11.7867 72.4481 10.6027 71.5947 9.792C70.7627 8.98133 69.5361 8.576 67.9148 8.576C66.7627 8.576 65.6854 8.77867 64.6827 9.184C63.7014 9.568 62.8587 10.0693 62.1547 10.688L61.3547 9.536C62.1867 8.78933 63.1894 8.21333 64.3627 7.808C65.5361 7.38133 66.7627 7.168 68.0427 7.168C70.1121 7.168 71.7014 7.69067 72.8108 8.736C73.9201 9.78133 74.4747 11.3387 74.4747 13.408V24H72.9388ZM66.9227 24.128C65.6854 24.128 64.6081 23.936 63.6907 23.552C62.7947 23.1467 62.1014 22.5813 61.6107 21.856C61.1414 21.1307 60.9067 20.2987 60.9067 19.36C60.9067 18.5067 61.0987 17.7387 61.4827 17.056C61.8881 16.352 62.5494 15.7867 63.4667 15.36C64.3841 14.912 65.6107 14.688 67.1467 14.688H73.2907V15.936H67.1788C65.4507 15.936 64.2347 16.256 63.5307 16.896C62.8481 17.536 62.5067 18.336 62.5067 19.296C62.5067 20.3627 62.9121 21.216 63.7227 21.856C64.5334 22.496 65.6747 22.816 67.1467 22.816C68.5547 22.816 69.7387 22.496 70.6987 21.856C71.6801 21.216 72.4054 20.288 72.8748 19.072L73.3228 20.16C72.8748 21.376 72.1068 22.3467 71.0188 23.072C69.9521 23.776 68.5867 24.128 66.9227 24.128ZM103.467 7.168C104.811 7.168 105.974 7.43467 106.955 7.968C107.958 8.48 108.736 9.26933 109.291 10.336C109.846 11.3813 110.123 12.6827 110.123 14.24V24H108.523V14.368C108.523 12.4907 108.064 11.0613 107.147 10.08C106.23 9.09867 104.95 8.608 103.307 8.608C102.048 8.608 100.96 8.87467 100.043 9.408C99.1257 9.94133 98.4217 10.688 97.931 11.648C97.4403 12.608 97.195 13.76 97.195 15.104V24H95.595V14.368C95.595 12.4907 95.1363 11.0613 94.219 10.08C93.3017 9.09867 92.0217 8.608 90.379 8.608C89.1203 8.608 88.0323 8.87467 87.115 9.408C86.1977 9.94133 85.4937 10.688 85.003 11.648C84.5123 12.608 84.267 13.76 84.267 15.104V24H82.667V7.296H84.203V11.904L83.979 11.392C84.4697 10.0907 85.291 9.06667 86.443 8.32C87.595 7.552 88.9817 7.168 90.603 7.168C92.267 7.168 93.6643 7.59467 94.795 8.448C95.947 9.28 96.6723 10.528 96.971 12.192L96.427 11.968C96.875 10.5387 97.7177 9.38667 98.955 8.512C100.192 7.616 101.696 7.168 103.467 7.168ZM146.367 24V7.296H147.903V11.872L147.743 11.36C148.212 10.016 149.002 8.98133 150.111 8.256C151.22 7.53067 152.607 7.168 154.271 7.168V8.736C154.207 8.736 154.143 8.736 154.079 8.736C154.015 8.71467 153.951 8.704 153.887 8.704C152.031 8.704 150.58 9.29067 149.535 10.464C148.49 11.616 147.967 13.2267 147.967 15.296V24H146.367ZM160.279 24V7.296H161.879V24H160.279ZM161.079 3.232C160.717 3.232 160.407 3.104 160.151 2.848C159.895 2.592 159.767 2.29333 159.767 1.952C159.767 1.58933 159.895 1.28 160.151 1.024C160.407 0.767999 160.717 0.639999 161.079 0.639999C161.463 0.639999 161.773 0.767999 162.007 1.024C162.263 1.25867 162.391 1.55733 162.391 1.92C162.391 2.28267 162.263 2.592 162.007 2.848C161.773 3.104 161.463 3.232 161.079 3.232ZM174.447 24L166.927 7.296H168.623L175.663 23.104H174.895L181.999 7.296H183.631L176.079 24H174.447ZM195.045 24.128C193.359 24.128 191.866 23.7653 190.565 23.04C189.285 22.3147 188.271 21.312 187.525 20.032C186.799 18.752 186.437 17.2907 186.437 15.648C186.437 13.984 186.778 12.5227 187.461 11.264C188.165 9.984 189.125 8.98133 190.341 8.256C191.557 7.53067 192.922 7.168 194.437 7.168C195.951 7.168 197.306 7.52 198.501 8.224C199.717 8.928 200.666 9.92 201.349 11.2C202.053 12.4587 202.405 13.92 202.405 15.584C202.405 15.648 202.394 15.7227 202.373 15.808C202.373 15.872 202.373 15.9467 202.373 16.032H187.621V14.784H201.509L200.869 15.392C200.89 14.0907 200.613 12.928 200.037 11.904C199.482 10.8587 198.725 10.048 197.765 9.472C196.805 8.87467 195.695 8.576 194.437 8.576C193.199 8.576 192.09 8.87467 191.109 9.472C190.149 10.048 189.391 10.8587 188.837 11.904C188.282 12.928 188.005 14.1013 188.005 15.424V15.712C188.005 17.0773 188.303 18.2933 188.901 19.36C189.519 20.4053 190.362 21.2267 191.429 21.824C192.495 22.4 193.711 22.688 195.077 22.688C196.143 22.688 197.135 22.496 198.053 22.112C198.991 21.728 199.781 21.1413 200.421 20.352L201.349 21.408C200.623 22.304 199.706 22.9867 198.597 23.456C197.509 23.904 196.325 24.128 195.045 24.128ZM243.776 24.128C242.091 24.128 240.597 23.7653 239.296 23.04C238.016 22.3147 237.003 21.312 236.256 20.032C235.531 18.752 235.168 17.2907 235.168 15.648C235.168 13.984 235.509 12.5227 236.192 11.264C236.896 9.984 237.856 8.98133 239.072 8.256C240.288 7.53067 241.653 7.168 243.168 7.168C244.683 7.168 246.037 7.52 247.232 8.224C248.448 8.928 249.397 9.92 250.08 11.2C250.784 12.4587 251.136 13.92 251.136 15.584C251.136 15.648 251.125 15.7227 251.104 15.808C251.104 15.872 251.104 15.9467 251.104 16.032H236.352V14.784H250.24L249.6 15.392C249.621 14.0907 249.344 12.928 248.768 11.904C248.213 10.8587 247.456 10.048 246.496 9.472C245.536 8.87467 244.427 8.576 243.168 8.576C241.931 8.576 240.821 8.87467 239.84 9.472C238.88 10.048 238.123 10.8587 237.568 11.904C237.013 12.928 236.736 14.1013 236.736 15.424V15.712C236.736 17.0773 237.035 18.2933 237.632 19.36C238.251 20.4053 239.093 21.2267 240.16 21.824C241.227 22.4 242.443 22.688 243.808 22.688C244.875 22.688 245.867 22.496 246.784 22.112C247.723 21.728 248.512 21.1413 249.152 20.352L250.08 21.408C249.355 22.304 248.437 22.9867 247.328 23.456C246.24 23.904 245.056 24.128 243.776 24.128ZM267.745 24V20.192L267.681 19.616V13.344C267.681 11.7867 267.254 10.6027 266.401 9.792C265.569 8.98133 264.342 8.576 262.721 8.576C261.569 8.576 260.492 8.77867 259.489 9.184C258.508 9.568 257.665 10.0693 256.961 10.688L256.161 9.536C256.993 8.78933 257.996 8.21333 259.169 7.808C260.342 7.38133 261.569 7.168 262.849 7.168C264.918 7.168 266.508 7.69067 267.617 8.736C268.726 9.78133 269.281 11.3387 269.281 13.408V24H267.745ZM261.729 24.128C260.492 24.128 259.414 23.936 258.497 23.552C257.601 23.1467 256.908 22.5813 256.417 21.856C255.948 21.1307 255.713 20.2987 255.713 19.36C255.713 18.5067 255.905 17.7387 256.289 17.056C256.694 16.352 257.356 15.7867 258.273 15.36C259.19 14.912 260.417 14.688 261.953 14.688H268.097V15.936H261.985C260.257 15.936 259.041 16.256 258.337 16.896C257.654 17.536 257.313 18.336 257.313 19.296C257.313 20.3627 257.718 21.216 258.529 21.856C259.34 22.496 260.481 22.816 261.953 22.816C263.361 22.816 264.545 22.496 265.505 21.856C266.486 21.216 267.212 20.288 267.681 19.072L268.129 20.16C267.681 21.376 266.913 22.3467 265.825 23.072C264.758 23.776 263.393 24.128 261.729 24.128ZM277.473 24V0.255999H279.073V24H277.473ZM291.641 24.128C290.254 24.128 288.953 23.9253 287.737 23.52C286.542 23.1147 285.614 22.6027 284.953 21.984L285.689 20.704C286.329 21.2587 287.182 21.7387 288.249 22.144C289.316 22.528 290.468 22.72 291.705 22.72C293.454 22.72 294.713 22.432 295.481 21.856C296.249 21.28 296.633 20.5227 296.633 19.584C296.633 18.9013 296.43 18.368 296.025 17.984C295.641 17.5787 295.118 17.2693 294.457 17.056C293.796 16.8427 293.07 16.672 292.281 16.544C291.492 16.3947 290.702 16.2347 289.913 16.064C289.124 15.8933 288.398 15.648 287.737 15.328C287.076 15.008 286.542 14.5707 286.137 14.016C285.753 13.44 285.561 12.6827 285.561 11.744C285.561 10.8907 285.796 10.1227 286.265 9.44C286.734 8.75733 287.438 8.21333 288.377 7.808C289.316 7.38133 290.489 7.168 291.897 7.168C292.942 7.168 293.988 7.31733 295.033 7.616C296.1 7.91467 296.964 8.30933 297.625 8.8L296.889 10.08C296.185 9.54667 295.396 9.16267 294.521 8.928C293.646 8.69333 292.761 8.576 291.865 8.576C290.244 8.576 289.049 8.87467 288.281 9.472C287.534 10.0693 287.161 10.816 287.161 11.712C287.161 12.416 287.353 12.9813 287.737 13.408C288.142 13.8133 288.676 14.1333 289.337 14.368C289.998 14.5813 290.724 14.7627 291.513 14.912C292.302 15.04 293.092 15.1893 293.881 15.36C294.67 15.5307 295.396 15.776 296.057 16.096C296.718 16.3947 297.241 16.8213 297.625 17.376C298.03 17.9093 298.233 18.6347 298.233 19.552C298.233 20.4693 297.977 21.2693 297.465 21.952C296.974 22.6347 296.238 23.168 295.257 23.552C294.276 23.936 293.07 24.128 291.641 24.128Z" fill="white"/>
</svg>
