<svg width="231" height="31" viewBox="0 0 231 31" fill="none" xmlns="http://www.w3.org/2000/svg">
<path d="M7.896 24L0.28 1.6H2.008L9.24 23.008H8.376L15.832 1.6H17.4L24.792 23.008H23.96L31.256 1.6H32.856L25.272 24H23.544L16.376 3.296H16.792L9.624 24H7.896ZM44.151 24.128C42.4657 24.128 40.9723 23.7653 39.671 23.04C38.391 22.3147 37.3777 21.312 36.631 20.032C35.9057 18.752 35.543 17.2907 35.543 15.648C35.543 13.984 35.8843 12.5227 36.567 11.264C37.271 9.984 38.231 8.98133 39.447 8.256C40.663 7.53067 42.0283 7.168 43.543 7.168C45.0577 7.168 46.4123 7.52 47.607 8.224C48.823 8.928 49.7723 9.92 50.455 11.2C51.159 12.4587 51.511 13.92 51.511 15.584C51.511 15.648 51.5003 15.7227 51.479 15.808C51.479 15.872 51.479 15.9467 51.479 16.032H36.727V14.784H50.615L49.975 15.392C49.9963 14.0907 49.719 12.928 49.143 11.904C48.5883 10.8587 47.831 10.048 46.871 9.472C45.911 8.87467 44.8017 8.576 43.543 8.576C42.3057 8.576 41.1963 8.87467 40.215 9.472C39.255 10.048 38.4977 10.8587 37.943 11.904C37.3883 12.928 37.111 14.1013 37.111 15.424V15.712C37.111 17.0773 37.4097 18.2933 38.007 19.36C38.6257 20.4053 39.4683 21.2267 40.535 21.824C41.6017 22.4 42.8177 22.688 44.183 22.688C45.2497 22.688 46.2417 22.496 47.159 22.112C48.0977 21.728 48.887 21.1413 49.527 20.352L50.455 21.408C49.7297 22.304 48.8123 22.9867 47.703 23.456C46.615 23.904 45.431 24.128 44.151 24.128ZM66.4448 24.128C64.9728 24.128 63.6394 23.7867 62.4448 23.104C61.2714 22.4213 60.3328 21.44 59.6288 20.16C58.9461 18.88 58.6048 17.376 58.6048 15.648C58.6048 13.8773 58.9461 12.3627 59.6288 11.104C60.3328 9.84533 61.2714 8.87467 62.4448 8.192C63.6394 7.50933 64.9728 7.168 66.4448 7.168C68.0234 7.168 69.4314 7.53067 70.6688 8.256C71.9274 8.96 72.9088 9.952 73.6128 11.232C74.3381 12.4907 74.7008 13.9627 74.7008 15.648C74.7008 17.312 74.3381 18.784 73.6128 20.064C72.9088 21.344 71.9274 22.3467 70.6688 23.072C69.4314 23.776 68.0234 24.128 66.4448 24.128ZM58.0608 24V0.255999H59.6608V12.704L59.3408 15.616L59.5968 18.528V24H58.0608ZM66.3488 22.688C67.6288 22.688 68.7808 22.4 69.8048 21.824C70.8288 21.2267 71.6288 20.3947 72.2048 19.328C72.8021 18.2613 73.1008 17.0347 73.1008 15.648C73.1008 14.24 72.8021 13.0133 72.2048 11.968C71.6288 10.9013 70.8288 10.08 69.8048 9.504C68.7808 8.90667 67.6288 8.608 66.3488 8.608C65.0688 8.608 63.9168 8.90667 62.8928 9.504C61.8901 10.08 61.0901 10.9013 60.4928 11.968C59.9168 13.0133 59.6288 14.24 59.6288 15.648C59.6288 17.0347 59.9168 18.2613 60.4928 19.328C61.0901 20.3947 61.8901 21.2267 62.8928 21.824C63.9168 22.4 65.0688 22.688 66.3488 22.688Z" fill="#FF8743"/>
<path d="M86.7585 24L79.1425 1.6H80.8705L88.1025 23.008H87.2385L94.6945 1.6H96.2625L103.655 23.008H102.823L110.119 1.6H111.719L104.135 24H102.407L95.2385 3.296H95.6545L88.4865 24H86.7585ZM117.292 24V7.296H118.892V24H117.292ZM118.092 3.232C117.729 3.232 117.42 3.104 117.164 2.848C116.908 2.592 116.78 2.29333 116.78 1.952C116.78 1.58933 116.908 1.28 117.164 1.024C117.42 0.767999 117.729 0.639999 118.092 0.639999C118.476 0.639999 118.785 0.767999 119.02 1.024C119.276 1.25867 119.404 1.55733 119.404 1.92C119.404 2.28267 119.276 2.592 119.02 2.848C118.785 3.104 118.476 3.232 118.092 3.232ZM125.252 24V22.912L136.676 8.128L137.092 8.672H125.412V7.296H138.34V8.384L126.884 23.168L126.404 22.624H138.532V24H125.252ZM155.458 24V20.192L155.394 19.616V13.344C155.394 11.7867 154.967 10.6027 154.114 9.792C153.282 8.98133 152.055 8.576 150.434 8.576C149.282 8.576 148.204 8.77867 147.202 9.184C146.22 9.568 145.378 10.0693 144.674 10.688L143.874 9.536C144.706 8.78933 145.708 8.21333 146.882 7.808C148.055 7.38133 149.282 7.168 150.562 7.168C152.631 7.168 154.22 7.69067 155.33 8.736C156.439 9.78133 156.994 11.3387 156.994 13.408V24H155.458ZM149.442 24.128C148.204 24.128 147.127 23.936 146.21 23.552C145.314 23.1467 144.62 22.5813 144.13 21.856C143.66 21.1307 143.426 20.2987 143.426 19.36C143.426 18.5067 143.618 17.7387 144.002 17.056C144.407 16.352 145.068 15.7867 145.986 15.36C146.903 14.912 148.13 14.688 149.666 14.688H155.81V15.936H149.698C147.97 15.936 146.754 16.256 146.05 16.896C145.367 17.536 145.026 18.336 145.026 19.296C145.026 20.3627 145.431 21.216 146.242 21.856C147.052 22.496 148.194 22.816 149.666 22.816C151.074 22.816 152.258 22.496 153.218 21.856C154.199 21.216 154.924 20.288 155.394 19.072L155.842 20.16C155.394 21.376 154.626 22.3467 153.538 23.072C152.471 23.776 151.106 24.128 149.442 24.128ZM165.186 24V7.296H166.722V11.872L166.562 11.36C167.031 10.016 167.82 8.98133 168.93 8.256C170.039 7.53067 171.426 7.168 173.09 7.168V8.736C173.026 8.736 172.962 8.736 172.898 8.736C172.834 8.71467 172.77 8.704 172.706 8.704C170.85 8.704 169.399 9.29067 168.354 10.464C167.308 11.616 166.786 13.2267 166.786 15.296V24H165.186ZM185.374 24.128C183.817 24.128 182.409 23.776 181.15 23.072C179.913 22.3467 178.931 21.344 178.206 20.064C177.481 18.784 177.118 17.312 177.118 15.648C177.118 13.9627 177.481 12.4907 178.206 11.232C178.931 9.952 179.913 8.96 181.15 8.256C182.409 7.53067 183.817 7.168 185.374 7.168C186.846 7.168 188.169 7.50933 189.342 8.192C190.537 8.87467 191.475 9.84533 192.158 11.104C192.862 12.3627 193.214 13.8773 193.214 15.648C193.214 17.376 192.873 18.88 192.19 20.16C191.507 21.44 190.569 22.4213 189.374 23.104C188.201 23.7867 186.867 24.128 185.374 24.128ZM185.47 22.688C186.75 22.688 187.891 22.4 188.894 21.824C189.918 21.2267 190.718 20.3947 191.294 19.328C191.891 18.2613 192.19 17.0347 192.19 15.648C192.19 14.24 191.891 13.0133 191.294 11.968C190.718 10.9013 189.918 10.08 188.894 9.504C187.891 8.90667 186.75 8.608 185.47 8.608C184.19 8.608 183.038 8.90667 182.014 9.504C181.011 10.08 180.211 10.9013 179.614 11.968C179.038 13.0133 178.75 14.24 178.75 15.648C178.75 17.0347 179.038 18.2613 179.614 19.328C180.211 20.3947 181.011 21.2267 182.014 21.824C183.038 22.4 184.19 22.688 185.47 22.688ZM192.222 24V18.528L192.51 15.616L192.19 12.704V0.255999H193.79V24H192.222ZM202.136 24V7.296H203.672V11.872L203.512 11.36C203.981 10.016 204.77 8.98133 205.88 8.256C206.989 7.53067 208.376 7.168 210.04 7.168V8.736C209.976 8.736 209.912 8.736 209.848 8.736C209.784 8.71467 209.72 8.704 209.656 8.704C207.8 8.704 206.349 9.29067 205.304 10.464C204.258 11.616 203.736 13.2267 203.736 15.296V24H202.136ZM216.414 30.336C215.646 30.336 214.921 30.208 214.238 29.952C213.577 29.696 213.012 29.3227 212.542 28.832L213.342 27.616C213.769 28.064 214.228 28.3947 214.718 28.608C215.23 28.8213 215.806 28.928 216.446 28.928C217.214 28.928 217.886 28.7147 218.462 28.288C219.06 27.8613 219.614 27.0827 220.126 25.952L221.278 23.392L221.502 23.104L228.574 7.296H230.206L221.63 26.272C221.182 27.296 220.692 28.096 220.158 28.672C219.646 29.2693 219.081 29.696 218.462 29.952C217.844 30.208 217.161 30.336 216.414 30.336ZM221.246 24.416L213.502 7.296H215.198L222.238 23.008L221.246 24.416Z" fill="white"/>
</svg>
